<?xml version="1.0" encoding="UTF-8"?>
<svg xmlns="http://www.w3.org/2000/svg" version="1.1" xmlns:xlink="http://www.w3.org/1999/xlink" viewBox="0 0 595.3 841.9">
  <defs>
    <style>
      .cls-1 {
        fill: #806930;
      }

      .cls-2 {
        fill: url(#linear-gradient-2);
      }

      .cls-3 {
        fill: url(#linear-gradient-10);
      }

      .cls-4 {
        fill: #efea50;
      }

      .cls-5 {
        fill: #e9a351;
      }

      .cls-6 {
        fill: url(#linear-gradient-4);
      }

      .cls-7 {
        fill: url(#linear-gradient-3);
      }

      .cls-8 {
        fill: url(#linear-gradient-5);
      }

      .cls-9 {
        fill: url(#linear-gradient-8);
      }

      .cls-10 {
        fill: #3f332d;
      }

      .cls-11 {
        fill: #aca137;
      }

      .cls-12 {
        fill: url(#linear-gradient-7);
      }

      .cls-13 {
        fill: url(#linear-gradient-9);
      }

      .cls-14 {
        fill: url(#linear-gradient-11);
      }

      .cls-15 {
        fill: #514426;
      }

      .cls-16 {
        fill: url(#linear-gradient-6);
      }

      .cls-17 {
        fill: #c1d43a;
      }

      .cls-18 {
        fill: url(#linear-gradient);
      }
    </style>
    <linearGradient id="linear-gradient" x1="521.8" y1="294.9" x2="221.8" y2="294.9" gradientUnits="userSpaceOnUse">
      <stop offset=".3" stop-color="#d94380"/>
      <stop offset=".7" stop-color="#efea50"/>
    </linearGradient>
    <linearGradient id="linear-gradient-2" x1="166.4" y1="289.9" x2="181.1" y2="275.2" gradientTransform="translate(-108.8 456.3) rotate(-90)" gradientUnits="userSpaceOnUse">
      <stop offset="0" stop-color="#ecb843"/>
      <stop offset="1" stop-color="#ecb943"/>
    </linearGradient>
    <linearGradient id="linear-gradient-3" x1="149.5" y1="306.8" x2="163.3" y2="293" gradientUnits="userSpaceOnUse">
      <stop offset="0" stop-color="#df4e4c"/>
      <stop offset="1" stop-color="#e9a351"/>
    </linearGradient>
    <linearGradient id="linear-gradient-4" x1="125.4" y1="326" x2="140.7" y2="310.7" gradientTransform="translate(-173.4 179.5) rotate(-45)" gradientUnits="userSpaceOnUse">
      <stop offset="0" stop-color="#d9437f"/>
      <stop offset="1" stop-color="#e36850"/>
    </linearGradient>
    <linearGradient id="linear-gradient-5" x1="182.7" y1="287.4" x2="188" y2="287.4" gradientTransform="translate(-102.1 472.8) rotate(-90)" xlink:href="#linear-gradient-2"/>
    <linearGradient id="linear-gradient-6" x1="190.5" y1="280.3" x2="194" y2="280.3" gradientTransform="translate(-88 472.6) rotate(-90)" xlink:href="#linear-gradient-2"/>
    <linearGradient id="linear-gradient-7" x1="-76.7" y1="1201.1" x2="-61.9" y2="1186.4" gradientTransform="translate(-1121.2 236.5) rotate(-90)" xlink:href="#linear-gradient-2"/>
    <linearGradient id="linear-gradient-8" x1="-93.5" y1="1218" x2="-79.7" y2="1204.2" gradientTransform="translate(3.2 1499.5) rotate(-180)" xlink:href="#linear-gradient-3"/>
    <linearGradient id="linear-gradient-9" x1="-117.6" y1="1237.2" x2="-102.4" y2="1221.9" gradientTransform="translate(-691.2 -669.5) rotate(-45)" xlink:href="#linear-gradient-4"/>
    <linearGradient id="linear-gradient-10" x1="-60.3" y1="1198.6" x2="-55.1" y2="1198.6" gradientTransform="translate(-1137.7 243.2) rotate(-90)" xlink:href="#linear-gradient-2"/>
    <linearGradient id="linear-gradient-11" x1="-52.5" y1="1191.5" x2="-49" y2="1191.5" gradientTransform="translate(-1137.6 257.2) rotate(-90)" xlink:href="#linear-gradient-2"/>
  </defs>
  <!-- Generator: Adobe Illustrator 28.7.1, SVG Export Plug-In . SVG Version: 1.2.0 Build 142)  -->
  <g>
    <g id="Layer_2">
      <g>
        <path class="cls-18" d="M241.5,313.8c-2.8,0-5.4-.5-7.8-1.4-2.4-.9-4.5-2.2-6.3-3.9-1.8-1.7-3.1-3.7-4.1-6-1-2.3-1.5-4.8-1.5-7.5s.5-5.2,1.5-7.5,2.4-4.3,4.2-6c1.8-1.7,3.9-3,6.3-3.9,2.4-.9,5-1.4,7.8-1.4s6,.5,8.6,1.6c2.5,1.1,4.7,2.7,6.4,4.8l-5.4,5c-1.2-1.4-2.6-2.5-4.2-3.2-1.5-.7-3.2-1.1-5-1.1s-3.3.3-4.7.8c-1.4.6-2.7,1.4-3.7,2.4-1,1-1.8,2.3-2.4,3.7-.6,1.4-.9,3-.9,4.7s.3,3.3.9,4.7c.6,1.4,1.4,2.7,2.4,3.7,1,1,2.3,1.8,3.7,2.4,1.4.6,3,.8,4.7.8s3.5-.4,5-1.1c1.5-.7,2.9-1.8,4.2-3.2l5.4,5c-1.7,2.1-3.9,3.7-6.4,4.8-2.5,1.1-5.4,1.7-8.6,1.7Z"/>
        <path class="cls-18" d="M277.8,313.8c-2.9,0-5.5-.5-8-1.4-2.4-.9-4.6-2.3-6.3-4-1.8-1.7-3.2-3.7-4.2-6-1-2.3-1.5-4.8-1.5-7.5s.5-5.2,1.5-7.5,2.4-4.3,4.2-6c1.8-1.7,3.9-3,6.3-4,2.4-.9,5.1-1.4,7.9-1.4s5.5.5,7.9,1.4,4.5,2.3,6.3,4c1.8,1.7,3.2,3.7,4.2,6,1,2.3,1.5,4.8,1.5,7.5s-.5,5.2-1.5,7.5c-1,2.3-2.4,4.3-4.2,6-1.8,1.7-3.9,3-6.3,3.9-2.4.9-5,1.4-7.9,1.4ZM277.8,306.6c1.6,0,3.1-.3,4.5-.8,1.4-.6,2.6-1.4,3.6-2.4,1-1,1.8-2.3,2.4-3.7.6-1.4.9-3,.9-4.7s-.3-3.3-.9-4.7c-.6-1.4-1.4-2.7-2.4-3.7-1-1-2.2-1.8-3.6-2.4-1.4-.6-2.9-.8-4.5-.8s-3.1.3-4.5.8c-1.4.6-2.6,1.4-3.6,2.4-1,1-1.8,2.3-2.4,3.7-.6,1.4-.9,3-.9,4.7s.3,3.3.9,4.7,1.4,2.7,2.4,3.7c1,1,2.2,1.8,3.6,2.4,1.4.6,2.9.8,4.5.8Z"/>
        <path class="cls-18" d="M304,313.1v-36.4h16.5c4,0,7.4.8,10.4,2.3,3,1.5,5.4,3.6,7.1,6.3s2.5,5.9,2.5,9.6-.8,6.9-2.5,9.6c-1.7,2.7-4.1,4.8-7.1,6.3-3,1.5-6.5,2.3-10.4,2.3h-16.5ZM312.4,306.2h7.7c2.4,0,4.5-.5,6.3-1.4,1.8-.9,3.2-2.2,4.2-3.9,1-1.7,1.5-3.7,1.5-6s-.5-4.3-1.5-6c-1-1.7-2.4-3-4.2-3.9-1.8-.9-3.9-1.4-6.3-1.4h-7.7v22.6Z"/>
        <path class="cls-18" d="M347,313.1v-36.4h27.5v6.8h-19.1v22.9h19.8v6.8h-28.2ZM354.7,298v-6.6h17.5v6.6h-17.5Z"/>
        <path class="cls-18" d="M381.8,313.1v-36.4h17.8c4.6,0,8,.9,10.3,2.6,2.3,1.7,3.5,4,3.5,6.9s-.5,3.6-1.4,5c-.9,1.4-2.2,2.5-3.8,3.2-1.6.8-3.5,1.1-5.6,1.1l1-2.1c2.3,0,4.3.4,6.1,1.1s3.1,1.8,4.1,3.3c1,1.5,1.5,3.2,1.5,5.4,0,3.1-1.2,5.6-3.7,7.3s-6.1,2.6-10.9,2.6h-18.8ZM390.2,306.8h9.8c2.2,0,3.8-.4,5-1.1,1.1-.7,1.7-1.8,1.7-3.4s-.6-2.7-1.7-3.4c-1.1-.7-2.8-1.1-5-1.1h-10.4v-6.1h9c2,0,3.6-.4,4.7-1.1,1.1-.7,1.6-1.8,1.6-3.2s-.5-2.5-1.6-3.2c-1.1-.7-2.7-1.1-4.7-1.1h-8.4v23.7Z"/>
        <path class="cls-18" d="M421.6,313.1v-36.4h27.5v6.8h-19.1v22.9h19.8v6.8h-28.2ZM429.4,298v-6.6h17.5v6.6h-17.5Z"/>
        <path class="cls-18" d="M456.5,313.1v-36.4h15.5c5.1,0,9,1.2,11.8,3.5,2.8,2.3,4.2,5.6,4.2,9.7s-.6,5-1.9,7c-1.3,2-3.1,3.5-5.5,4.5s-5.2,1.6-8.4,1.6h-11.1l3.7-3.7v13.8h-8.4ZM464.9,300.2l-3.7-4h10.6c2.6,0,4.5-.6,5.8-1.7,1.3-1.1,1.9-2.7,1.9-4.7s-.6-3.6-1.9-4.7c-1.3-1.1-3.2-1.7-5.8-1.7h-10.6l3.7-4v20.6ZM479.6,313.1l-9.1-13.2h9l9.2,13.2h-9.1Z"/>
        <path class="cls-18" d="M501.7,313.1v-29.5h-11.6v-6.9h31.7v6.9h-11.6v29.5h-8.4Z"/>
      </g>
      <g>
        <g>
          <rect class="cls-10" x="123.5" y="262.5" width="15.7" height="14.8" transform="translate(401.2 138.5) rotate(90)"/>
          <rect class="cls-15" x="133.6" y="262.5" width="15.7" height="14.8" transform="translate(411.3 128.4) rotate(90)"/>
          <rect class="cls-1" x="144.9" y="262.5" width="15.7" height="14.8" transform="translate(422.6 117.1) rotate(90)"/>
          <rect class="cls-11" x="155.8" y="262.5" width="15.7" height="14.8" transform="translate(433.6 106.2) rotate(90)"/>
          <rect class="cls-17" x="165.8" y="262.5" width="15.7" height="14.8" transform="translate(443.6 96.2) rotate(90)"/>
          <rect class="cls-4" x="174" y="267.5" width="14.8" height="14.8" transform="translate(456.3 93.5) rotate(90)"/>
          <rect class="cls-2" x="166.4" y="275.2" width="14.8" height="14.8" transform="translate(456.3 108.8) rotate(90)"/>
          <rect class="cls-5" x="157.6" y="282.5" width="16.2" height="16.2" transform="translate(456.3 124.9) rotate(90)"/>
          <circle class="cls-7" cx="156.4" cy="299.9" r="9.8"/>
          <rect class="cls-6" x="134.9" y="299.7" width="21.6" height="21.6" transform="translate(262.3 -12.1) rotate(45)"/>
          <rect class="cls-8" x="182.7" y="284.8" width="5.2" height="5.2" transform="translate(472.8 102.1) rotate(90)"/>
          <rect class="cls-16" x="190.5" y="278.6" width="3.5" height="3.5" transform="translate(472.6 88) rotate(90)"/>
          <rect class="cls-17" x="183.6" y="253.3" width="3.5" height="3.5" transform="translate(440.4 69.7) rotate(90)"/>
          <rect class="cls-4" x="193.4" y="256.7" width="3.1" height="3.1" transform="translate(453.2 63.3) rotate(90)"/>
          <rect class="cls-4" x="188.1" y="260.2" width="5.4" height="5.4" transform="translate(453.6 72.1) rotate(90)"/>
        </g>
        <g>
          <rect class="cls-10" x="107" y="311" width="15.7" height="14.8" transform="translate(-203.5 433.3) rotate(-90)"/>
          <rect class="cls-15" x="96.9" y="311" width="15.7" height="14.8" transform="translate(-213.6 423.2) rotate(-90)"/>
          <rect class="cls-1" x="85.7" y="311" width="15.7" height="14.8" transform="translate(-224.9 411.9) rotate(-90)"/>
          <rect class="cls-11" x="74.7" y="311" width="15.7" height="14.8" transform="translate(-235.8 401) rotate(-90)"/>
          <rect class="cls-17" x="64.7" y="311" width="15.7" height="14.8" transform="translate(-245.9 391) rotate(-90)"/>
          <rect class="cls-4" x="57.5" y="306" width="14.8" height="14.8" transform="translate(-248.6 378.2) rotate(-90)"/>
          <rect class="cls-12" x="65.1" y="298.4" width="14.8" height="14.8" transform="translate(-233.3 378.2) rotate(-90)"/>
          <rect class="cls-5" x="72.5" y="289.6" width="16.2" height="16.2" transform="translate(-217.1 378.2) rotate(-90)"/>
          <circle class="cls-9" cx="89.8" cy="288.4" r="9.8"/>
          <rect class="cls-13" x="89.7" y="267" width="21.6" height="21.6" transform="translate(-24.9 545.2) rotate(-135)"/>
          <rect class="cls-3" x="58.3" y="298.2" width="5.2" height="5.2" transform="translate(-240 361.8) rotate(-90)"/>
          <rect class="cls-14" x="52.2" y="306.2" width="3.5" height="3.5" transform="translate(-254 361.9) rotate(-90)"/>
          <rect class="cls-17" x="59.2" y="331.5" width="3.5" height="3.5" transform="translate(-272.4 394.2) rotate(-90)"/>
          <rect class="cls-4" x="49.8" y="328.5" width="3.1" height="3.1" transform="translate(-278.7 381.3) rotate(-90)"/>
          <rect class="cls-4" x="52.8" y="322.7" width="5.4" height="5.4" transform="translate(-269.9 380.9) rotate(-90)"/>
        </g>
      </g>
    </g>
  </g>
</svg>